<svg width="25" height="25" viewBox="0 0 25 25" fill="none" xmlns="http://www.w3.org/2000/svg"><path d="M4.4375 19.5312C5.75 18.6146 7.05208 17.9115 8.34375 17.4219C9.63542 16.9323 11.0208 16.6875 12.5 16.6875C13.9792 16.6875 15.3698 16.9323 16.6719 17.4219C17.974 17.9115 19.2812 18.6146 20.5938 19.5312C21.5104 18.4062 22.1615 17.2708 22.5469 16.125C22.9323 14.9792 23.125 13.7708 23.125 12.5C23.125 9.47917 22.1094 6.95312 20.0781 4.92188C18.0469 2.89062 15.5208 1.875 12.5 1.875C9.47917 1.875 6.95312 2.89062 4.92188 4.92188C2.89062 6.95312 1.875 9.47917 1.875 12.5C1.875 13.7708 2.07292 14.9792 2.46875 16.125C2.86458 17.2708 3.52083 18.4062 4.4375 19.5312ZM12.5 13.4375C11.2917 13.4375 10.276 13.026 9.45312 12.2031C8.63021 11.3802 8.21875 10.3646 8.21875 9.15625C8.21875 7.94792 8.63021 6.93229 9.45312 6.10938C10.276 5.28646 11.2917 4.875 12.5 4.875C13.7083 4.875 14.724 5.28646 15.5469 6.10938C16.3698 6.93229 16.7812 7.94792 16.7812 9.15625C16.7812 10.3646 16.3698 11.3802 15.5469 12.2031C14.724 13.026 13.7083 13.4375 12.5 13.4375ZM12.5 25C10.7917 25 9.17708 24.6719 7.65625 24.0156C6.13542 23.3594 4.80729 22.4635 3.67188 21.3281C2.53646 20.1927 1.64062 18.8646 0.984375 17.3438C0.328125 15.8229 0 14.2083 0 12.5C0 10.7708 0.328125 9.15104 0.984375 7.64062C1.64062 6.13021 2.53646 4.80729 3.67188 3.67188C4.80729 2.53646 6.13542 1.64062 7.65625 0.984375C9.17708 0.328125 10.7917 0 12.5 0C14.2292 0 15.849 0.328125 17.3594 0.984375C18.8698 1.64062 20.1927 2.53646 21.3281 3.67188C22.4635 4.80729 23.3594 6.13021 24.0156 7.64062C24.6719 9.15104 25 10.7708 25 12.5C25 14.2083 24.6719 15.8229 24.0156 17.3438C23.3594 18.8646 22.4635 20.1927 21.3281 21.3281C20.1927 22.4635 18.8698 23.3594 17.3594 24.0156C15.849 24.6719 14.2292 25 12.5 25ZM12.5 23.125C13.6458 23.125 14.7656 22.9583 15.8594 22.625C16.9531 22.2917 18.0312 21.7083 19.0938 20.875C18.0312 20.125 16.9479 19.5521 15.8438 19.1562C14.7396 18.7604 13.625 18.5625 12.5 18.5625C11.375 18.5625 10.2604 18.7604 9.15625 19.1562C8.05208 19.5521 6.96875 20.125 5.90625 20.875C6.96875 21.7083 8.04688 22.2917 9.14062 22.625C10.2344 22.9583 11.3542 23.125 12.5 23.125ZM12.5 11.5625C13.2083 11.5625 13.7865 11.3385 14.2344 10.8906C14.6823 10.4427 14.9062 9.86458 14.9062 9.15625C14.9062 8.44792 14.6823 7.86979 14.2344 7.42188C13.7865 6.97396 13.2083 6.75 12.5 6.75C11.7917 6.75 11.2135 6.97396 10.7656 7.42188C10.3177 7.86979 10.0938 8.44792 10.0938 9.15625C10.0938 9.86458 10.3177 10.4427 10.7656 10.8906C11.2135 11.3385 11.7917 11.5625 12.5 11.5625Z" fill="#FF7F29"/></svg>