<svg class="me-2" width="18" height="18" viewBox="0 0 18 18" fill="none" xmlns="http://www.w3.org/2000/svg"><path d="M0 1.25C0 1.05109 0.0790175 0.860322 0.21967 0.71967C0.360322 0.579018 0.551088 0.5 0.75 0.5H1.308C2.258 0.5 2.828 1.139 3.153 1.733C3.37 2.129 3.527 2.588 3.65 3.004C3.68327 3.00137 3.71663 3.00004 3.75 3H16.248C17.078 3 17.678 3.794 17.45 4.593L15.622 11.002C15.4581 11.5769 15.1114 12.0827 14.6343 12.4428C14.1572 12.803 13.5758 12.9979 12.978 12.998H7.03C6.42749 12.998 5.84165 12.8002 5.36252 12.4349C4.8834 12.0696 4.5375 11.557 4.378 10.976L3.618 8.204L2.358 3.956L2.357 3.948C2.201 3.381 2.055 2.85 1.837 2.454C1.628 2.069 1.46 2 1.309 2H0.75C0.551088 2 0.360322 1.92098 0.21967 1.78033C0.0790175 1.63968 0 1.44891 0 1.25ZM5.073 7.84L5.824 10.579C5.974 11.121 6.467 11.498 7.03 11.498H12.978C13.2497 11.498 13.514 11.4095 13.7309 11.2458C13.9478 11.0821 14.1054 10.8523 14.18 10.591L15.917 4.5H4.085L5.059 7.787L5.073 7.84Z" fill="#FF5100"/><path d="M8.5 16C8.5 16.5304 8.28929 17.0391 7.91421 17.4142C7.53914 17.7893 7.03043 18 6.5 18C5.96957 18 5.46086 17.7893 5.08579 17.4142C4.71071 17.0391 4.5 16.5304 4.5 16C4.5 15.4696 4.71071 14.9609 5.08579 14.5858C5.46086 14.2107 5.96957 14 6.5 14C7.03043 14 7.53914 14.2107 7.91421 14.5858C8.28929 14.9609 8.5 15.4696 8.5 16ZM7 16C7 15.8674 6.94732 15.7402 6.85355 15.6464C6.75979 15.5527 6.63261 15.5 6.5 15.5C6.36739 15.5 6.24021 15.5527 6.14645 15.6464C6.05268 15.7402 6 15.8674 6 16C6 16.1326 6.05268 16.2598 6.14645 16.3536C6.24021 16.4473 6.36739 16.5 6.5 16.5C6.63261 16.5 6.75979 16.4473 6.85355 16.3536C6.94732 16.2598 7 16.1326 7 16Z" fill="#FF5100"/><path d="M15.5 16C15.5 16.5304 15.2893 17.0391 14.9142 17.4142C14.5391 17.7893 14.0304 18 13.5 18C12.9696 18 12.4609 17.7893 12.0858 17.4142C11.7107 17.0391 11.5 16.5304 11.5 16C11.5 15.4696 11.7107 14.9609 12.0858 14.5858C12.4609 14.2107 12.9696 14 13.5 14C14.0304 14 14.5391 14.2107 14.9142 14.5858C15.2893 14.9609 15.5 15.4696 15.5 16ZM14 16C14 15.8674 13.9473 15.7402 13.8536 15.6464C13.7598 15.5527 13.6326 15.5 13.5 15.5C13.3674 15.5 13.2402 15.5527 13.1464 15.6464C13.0527 15.7402 13 15.8674 13 16C13 16.1326 13.0527 16.2598 13.1464 16.3536C13.2402 16.4473 13.3674 16.5 13.5 16.5C13.6326 16.5 13.7598 16.4473 13.8536 16.3536C13.9473 16.2598 14 16.1326 14 16Z" fill="#FF5100"/></svg>